<svg width="100" height="100" fill="none" xmlns="http://www.w3.org/2000/svg" xmlns:xlink="http://www.w3.org/1999/xlink"><path d="M50 100c27.6142 0 50-22.3858 50-50S77.6142 0 50 0 0 22.3858 0 50s22.3858 50 50 50Z" fill="#FFF0C5"/><mask id="a" style="mask-type:alpha" maskUnits="userSpaceOnUse" x="0" y="0" width="100" height="100"><path d="M50 100c27.6142 0 50-22.3858 50-50S77.6142 0 50 0 0 22.3858 0 50s22.3858 50 50 50Z" fill="#FFF0C5"/></mask><g mask="url(#a)"><path fill="url(#b)" d="M0 .157562h100v100H0z" style="mix-blend-mode:multiply"/></g><path fill-rule="evenodd" clip-rule="evenodd" d="M76.2931 31.5h-38.999l-5.5 5.5h38.9991l5.4999-5.5ZM69.7932 38H30.7941L23.5 45.2942H62.499L69.7932 38Zm-7.1167 8.5309v23.5563L77 53.2059V32.2073L62.6765 46.5309ZM23 46.2942v24.3823h38.6765V46.2942H23Z" fill="#000"/><defs><pattern id="b" patternContentUnits="objectBoundingBox" width="1" height="1"><use xlink:href="#c" transform="matrix(.00164 0 0 .00165 -.0633333 -.06)"/></pattern></defs></svg>