<svg width="100" height="100" fill="none" xmlns="http://www.w3.org/2000/svg" xmlns:xlink="http://www.w3.org/1999/xlink"><path d="M50 100c27.6142 0 50-22.3858 50-50S77.6142 0 50 0 0 22.3858 0 50s22.3858 50 50 50Z" fill="#FFF0C5"/><mask id="a" style="mask-type:alpha" maskUnits="userSpaceOnUse" x="0" y="0" width="100" height="100"><path d="M50 100c27.6142 0 50-22.3858 50-50S77.6142 0 50 0 0 22.3858 0 50s22.3858 50 50 50Z" fill="#FFF0C5"/></mask><g mask="url(#a)"><path fill="url(#b)" d="M0 .157532h100v100H0z" style="mix-blend-mode:multiply"/></g><path d="M53.2995 23.1382c-.0932-.0885-.2157-.1363-.3433-.1207-.6056.0741-2.2386.3642-2.9971.501-.2319.0418-.4011.2404-.4173.4754-.3143 4.5826-3.5619 8.5866-10.0443 9.4051-.2.0253-.3962-.076-.4934-.2526L37.85 31.0505c-.0965-.1753-.2883-.2762-.4875-.2564l-2.0198.2011c-.2915.0291-.4957.3013-.442.5893l1.0858 5.8175c.059.3163-.1918.6052-.5132.5913l-11.7762-.511c-.3421-.0148-.5976.3109-.5017.6396l1.1353 3.891c.0463.1588.1731.2857.33.3384 13.7493 4.6232 13.2045 17.488 10.2071 29.0682-.0416.1611-.0011.3333.1117.4557 5.3211 5.7758 15.6237 5.3688 20.8143 4.8459.2449-.0247.4313-.2296.4515-.4749.553-6.7011 6.0461-6.9699 15.2329-3.4541.2229.0853.4792.0044.6041-.199 1.1371-1.8512 2.0353-3.7539 4.5662-5.324.202-.1253.2978-.3718.223-.5974l-5.0943-15.3658c-.081-.2444-.3343-.3873-.5853-.3302l-1.6745.3804c-.4148.0942-.7441-.3363-.5297-.7037 1.3061-2.2383 3.3282-4.886 5.127-6.2937.1-.0782.1688-.1892.1911-.3142l1.6641-9.3405c.0521-.2923-.1627-.5651-.4584-.5907-9.8083-.8503-16.3052-5.3659-22.212-10.9751Z" fill="#000"/><defs><pattern id="b" patternContentUnits="objectBoundingBox" width="1" height="1"><use xlink:href="#c" transform="matrix(.00164 0 0 .00165 -.0633333 -.06)"/></pattern></defs></svg>