<svg width="100" height="100" fill="none" xmlns="http://www.w3.org/2000/svg" xmlns:xlink="http://www.w3.org/1999/xlink"><path d="M50 100c27.6142 0 50-22.3858 50-50S77.6142 0 50 0 0 22.3858 0 50s22.3858 50 50 50Z" fill="#FFF0C5"/><mask id="a" style="mask-type:alpha" maskUnits="userSpaceOnUse" x="0" y="0" width="100" height="100"><path d="M50 100c27.6142 0 50-22.3858 50-50S77.6142 0 50 0 0 22.3858 0 50s22.3858 50 50 50Z" fill="#FFF0C5"/></mask><g mask="url(#a)"><path fill="url(#b)" d="M0 .157532h100v100H0z" style="mix-blend-mode:multiply"/></g><path d="M74.2058 27.1406c-.525-1.1717-2.0252-1.2186-2.6534-.1125-2.9065 5.0525-8.1101 8.202-14.0544 8.202h-7.5007c-9.9385 0-18.0017 8.0615-18.0017 17.9976 0 .6562.4386 3.364.5042 4.0014C38.4817 52.9453 46.7549 49 58.9998 49c.8251 0 1.5.1 1.5.6s-.6766.6281-1.5017.6281c-23.571 0-33.5657 14.445-35.7784 19.8724L24.5 71c1-2.5 6-9.5 9-11 3.0378 4.1151 10.8342 11.9283 18.4193 11.1222 14.7202-1.0686 25.0805-14.2668 25.0805-30.4272 0-4.7056-1.0126-9.5799-2.794-13.5544Z" fill="#000"/><defs><pattern id="b" patternContentUnits="objectBoundingBox" width="1" height="1"><use xlink:href="#c" transform="matrix(.00164 0 0 .00165 -.0633333 -.06)"/></pattern></defs></svg>