<svg width="100" height="100" fill="none" xmlns="http://www.w3.org/2000/svg" xmlns:xlink="http://www.w3.org/1999/xlink"><path d="M50 100c27.6142 0 50-22.3858 50-50S77.6142 0 50 0 0 22.3858 0 50s22.3858 50 50 50Z" fill="#FFF0C5"/><mask id="a" style="mask-type:alpha" maskUnits="userSpaceOnUse" x="0" y="0" width="100" height="100"><path d="M50 100c27.6142 0 50-22.3858 50-50S77.6142 0 50 0 0 22.3858 0 50s22.3858 50 50 50Z" fill="#FFF0C5"/></mask><g mask="url(#a)"><path fill="url(#b)" d="M0 .157562h100v100H0z" style="mix-blend-mode:multiply"/></g><path fill-rule="evenodd" clip-rule="evenodd" d="M77 50c0 14.9117-12.0883 27-27 27S23 64.9117 23 50s12.0883-27 27-27 27 12.0883 27 27Zm-40.5719-1.09.1949.4604 3.0321 7.1629-.9209.3898-2.5845-6.1054-2.8235 5.6511c-1.1628 2.3271.5295 5.0644 3.1309 5.0644H46v1h-9.5429c-3.3447 0-5.5205-3.5194-4.0255-6.5114l2.7465-5.4968-5.9835 2.533-.3898-.9209 7.1628-3.0322.4605-.1949Zm14.3621 13.1871.3203-.3839.3879-.4649.0013-.0685.055.001 4.5388-5.4401.7678.6406-4.0244 4.8237 10.701.2019c2.6488.05 4.3906-2.747 3.1775-5.1021l-4.1599-8.0758.889-.4579 4.1599 8.0757c1.5597 3.0281-.6798 6.6242-4.0854 6.5599l-11.0465-.2084 5.3148 4.4342-.6407.7678-5.9724-4.9829-.384-.3203Zm11.4995-16.3974-.498.0449-7.7466.6998-.09-.996 6.7818-.6126-8.7465-11.1955c-1.4627-1.8722-4.3259-1.7742-5.6571.1936l-8.4195 12.4463-.8282-.5604 8.4194-12.4462c1.7116-2.5301 5.3929-2.6561 7.2734-.249l8.3248 10.6558-.5541-6.1354.9959-.09.6997 7.7467.045.498Z" fill="#000"/><defs><pattern id="b" patternContentUnits="objectBoundingBox" width="1" height="1"><use xlink:href="#c" transform="matrix(.00164 0 0 .00165 -.0633333 -.06)"/></pattern></defs></svg>