<svg width="100" height="100" fill="none" xmlns="http://www.w3.org/2000/svg" xmlns:xlink="http://www.w3.org/1999/xlink"><path d="M50 100c27.6142 0 50-22.3858 50-50S77.6142 0 50 0 0 22.3858 0 50s22.3858 50 50 50Z" fill="#FFF0C5"/><mask id="a" style="mask-type:alpha" maskUnits="userSpaceOnUse" x="0" y="0" width="100" height="100"><path d="M50 100c27.6142 0 50-22.3858 50-50S77.6142 0 50 0 0 22.3858 0 50s22.3858 50 50 50Z" fill="#FFF0C5"/></mask><g mask="url(#a)"><path fill="url(#b)" d="M0 .157532h100v100H0z" style="mix-blend-mode:multiply"/></g><path fill-rule="evenodd" clip-rule="evenodd" d="M77 50c0 14.9117-12.0883 27-27 27S23 64.9117 23 50s12.0883-27 27-27 27 12.0883 27 27ZM52.0735 35.5077c-3.255-.1065-6.4511.8859-9.0734 2.8173l-.593-.8052c2.8031-2.0646 6.2196-3.1254 9.6991-3.0115 3.4795.1138 6.8194 1.3958 9.4815 3.6392 2.6621 2.2435 4.4915 5.3178 5.1933 8.7277.7019 3.4099.2353 6.9568-1.3244 10.0692-1.5598 3.1124-4.1219 5.6091-7.2736 7.0879-3.1517 1.4787-6.7095 1.8533-10.1001 1.0635-3.3906-.7897-6.4166-2.698-8.5905-5.4172-2.0231-2.5307-3.1985-5.6267-3.371-8.8501l-4.1327 5.1493-.7799-.626 4.8686-6.066.3129-.39.39.313 6.066 4.8685-.6259.7799-5.1011-4.094c.1591 3.0196 1.2591 5.9204 3.1542 8.2909 2.0336 2.5439 4.8644 4.329 8.0362 5.0678 3.1719.7389 6.5001.3884 9.4485-.9949 2.9484-1.3834 5.3452-3.719 6.8043-6.6306 1.4592-2.9116 1.8956-6.2297 1.239-9.4196-.6565-3.1899-2.3678-6.0659-4.8582-8.1646s-5.6148-3.2979-8.8698-3.4045Z" fill="#000"/><defs><pattern id="b" patternContentUnits="objectBoundingBox" width="1" height="1"><use xlink:href="#c" transform="matrix(.00164 0 0 .00165 -.0633333 -.06)"/></pattern></defs></svg>