<svg width="40" height="40" fill="none" xmlns="http://www.w3.org/2000/svg" xmlns:xlink="http://www.w3.org/1999/xlink"><g clip-path="url(#a)"><path d="M0 20c0 11.0457 8.9543 20 20 20s20-8.9543 20-20S31.0457 0 20 0 0 8.9543 0 20Z" fill="#F2EFE6"/><mask id="b" style="mask-type:alpha" maskUnits="userSpaceOnUse" x="0" y="0" width="40" height="40"><path d="M0 20c0 11.0457 8.9543 20 20 20s20-8.9543 20-20S31.0457 0 20 0 0 8.9543 0 20Z" fill="#F2EFE6"/></mask><g mask="url(#b)"><path transform="rotate(90 39.937 0)" fill="url(#c)" d="M39.937 0h40v40h-40z" style="mix-blend-mode:multiply"/></g><path d="m11 17 9 9 9-9" stroke="#000"/></g><defs><clipPath id="a"><path fill="#fff" transform="rotate(90 20 20)" d="M0 0h40v40H0z"/></clipPath><pattern id="c" patternContentUnits="objectBoundingBox" width="1" height="1"><use xlink:href="#d" transform="matrix(.00164 0 0 .00165 -.0633333 -.06)"/></pattern></defs></svg>