<svg width="100" height="100" fill="none" xmlns="http://www.w3.org/2000/svg" xmlns:xlink="http://www.w3.org/1999/xlink"><path d="M50 100c27.6142 0 50-22.3858 50-50S77.6142 0 50 0 0 22.3858 0 50s22.3858 50 50 50Z" fill="#FFF0C5"/><mask id="a" style="mask-type:alpha" maskUnits="userSpaceOnUse" x="0" y="0" width="100" height="100"><path d="M50 100c27.6142 0 50-22.3858 50-50S77.6142 0 50 0 0 22.3858 0 50s22.3858 50 50 50Z" fill="#FFF0C5"/></mask><g mask="url(#a)"><path fill="url(#b)" d="M0 .157532h100v100H0z" style="mix-blend-mode:multiply"/></g><g clip-path="url(#c)"><path d="M51.35 77H23V45.635c0-1.597 1.7795-2.5499 3.1086-1.6647L36.5 50.891v-5.256c0-1.597 1.7795-2.5499 3.1086-1.6647L50 50.891v-5.256c0-1.597 1.7795-2.5499 3.1086-1.6647L63.5 50.891V23H77v54H51.35Z" fill="#000"/></g><defs><clipPath id="c"><path fill="#fff" transform="translate(23 23)" d="M0 0h54v54H0z"/></clipPath><pattern id="b" patternContentUnits="objectBoundingBox" width="1" height="1"><use xlink:href="#d" transform="matrix(.00164 0 0 .00165 -.0633333 -.06)"/></pattern></defs></svg>