<svg width="40" height="40" fill="none" xmlns="http://www.w3.org/2000/svg" xmlns:xlink="http://www.w3.org/1999/xlink"><g clip-path="url(#a)"><path d="M20 40c11.0457 0 20-8.9543 20-20S31.0457 0 20 0 0 8.9543 0 20s8.9543 20 20 20Z" fill="#FFF0C5"/><mask id="b" style="mask-type:alpha" maskUnits="userSpaceOnUse" x="0" y="0" width="40" height="40"><path d="M20 40c11.0457 0 20-8.9543 20-20S31.0457 0 20 0 0 8.9543 0 20s8.9543 20 20 20Z" fill="#FFF0C5"/></mask><g mask="url(#b)"><path fill="url(#c)" d="M0 .0630188h40v40H0z" style="mix-blend-mode:multiply"/></g><path transform="matrix(.70266 -.71153 .70266 .71153 10.0853 30.8033)" stroke="#000" d="M0-.5h26.1467"/><path d="M12.4694 12.0141h15.8283v16.2878" stroke="#000"/></g><defs><clipPath id="a"><path fill="#fff" d="M0 0h40v40H0z"/></clipPath><pattern id="c" patternContentUnits="objectBoundingBox" width="1" height="1"><use xlink:href="#d" transform="matrix(.00164 0 0 .00165 -.0633333 -.06)"/></pattern></defs></svg>