<svg width="100" height="100" fill="none" xmlns="http://www.w3.org/2000/svg" xmlns:xlink="http://www.w3.org/1999/xlink"><path d="M50 100c27.6142 0 50-22.3858 50-50S77.6142 0 50 0 0 22.3858 0 50s22.3858 50 50 50Z" fill="#FFF0C5"/><mask id="a" style="mask-type:alpha" maskUnits="userSpaceOnUse" x="0" y="0" width="100" height="100"><path d="M50 100c27.6142 0 50-22.3858 50-50S77.6142 0 50 0 0 22.3858 0 50s22.3858 50 50 50Z" fill="#FFF0C5"/></mask><g mask="url(#a)"><path fill="url(#b)" d="M0 .157562h100v100H0z" style="mix-blend-mode:multiply"/></g><g clip-path="url(#c)"><path d="M35.7087 61.1286c-3.8116.819-10.9045 2.3446-12.6826 8.9254l-.014 4.9404c-.0031 1.1067.8933 2.0056 2 2.0056h49.9623c1.1045 0 2-.8954 2-2v-4.9475c-1.7887-6.6273-8.933-8.3149-12.7703-9.2209-.8399-.198-1.5651-.3705-1.9292-.528-2.5138-1.0846-4.1636-2.6747-4.9219-4.7417 5.6697 1.0635 10.2775-2.4376 10.486-2.5982.0969-.0763.1736-.1751.2234-.2876.0498-.1125.0711-.2353.0622-.3579-.009-.1226-.0479-.2411-.1135-.3453-.0656-.1042-.1558-.191-.2628-.2527-4.1515-2.3536-4.1515-10.4929-4.1515-13.5576 0-8.3193-6.1532-15.1206-13.7144-15.1626l-.213.0045c-7.4525.1065-13.2658 6.9003-13.2658 15.4701 0 3.0647 0 11.2025-4.1515 13.5576-.1037.0587-.1919.141-.2574.2401-.0655.0991-.1064.2122-.1194.33-.013.1178.0024.237.0448.3478.0423.1108.1106.2101.1991.2897.1435.129 3.4006 2.9746 10.5947 2.4436-.7251 2.1571-2.3975 3.8131-4.9869 4.9292-.3676.1596-1.1137.3207-1.9794.5076l-.0389.0084Z" fill="#000"/></g><defs><clipPath id="c"><path fill="#fff" transform="translate(23 23)" d="M0 0h54v54H0z"/></clipPath><pattern id="b" patternContentUnits="objectBoundingBox" width="1" height="1"><use xlink:href="#d" transform="matrix(.00164 0 0 .00165 -.0633333 -.06)"/></pattern></defs></svg>