<svg width="100" height="100" fill="none" xmlns="http://www.w3.org/2000/svg" xmlns:xlink="http://www.w3.org/1999/xlink"><path d="M50 100c27.6142 0 50-22.3858 50-50S77.6142 0 50 0 0 22.3858 0 50s22.3858 50 50 50Z" fill="#FFF0C5"/><mask id="a" style="mask-type:alpha" maskUnits="userSpaceOnUse" x="0" y="0" width="100" height="100"><path d="M50 100c27.6142 0 50-22.3858 50-50S77.6142 0 50 0 0 22.3858 0 50s22.3858 50 50 50Z" fill="#FFF0C5"/></mask><g mask="url(#a)"><path fill="url(#b)" d="M0 .157532h100v100H0z" style="mix-blend-mode:multiply"/></g><path d="M31.5714 75.6859c4.2123.2859 8.0409.1191 9.4286 0 3.0368-.254 3.7143-1.2173 3.6735-1.6672v-4.6046c.3428-.1588.3673-.9527.3673-.9527S46.4361 39.6175 50 25.5507v-1.7069H23v1.945c4.7143 20.5225 4.6653 42.9584 4.7143 43.3077.049.3493.3469.4896.4898.516-.0204 1.2438-.049 3.8664 0 4.4062.0612.6749.7959 1.3894 3.3673 1.6672ZM50 77h27v-2.363c-1.2462-1.8904-2.0962-3.7575-2.3654-4.4548-2.7692-13.5968-2.9423-39.1171-3.1731-39.396-.2884-.3486-3.8077-1.2783-4.3846-1.3945-.4615-.093-.5384-.2195-.5192-.2712v-1.0072c.5385-.0129 1.5115-.1239 1.0961-.4648-.4153-.3409-.5576-.891-.5769-1.1234l-.2307-3.0603c-.1539-.1549-1.1193-.4648-3.75-.4648-2.6308 0-3.4808.3615-3.577.5423-.0961.9168-.2884 2.7969-.2884 2.9828 0 .2324-.2885.8135-.5193 1.1234-.1846.2479.6154.4648 1.0385.5423v.7748c0 .2169-.1538.297-.2308.3099-3.3692.7127-4.5577 1.4074-4.7307 1.6657.5192 13.2482-2.6308 38.2183-2.7693 39.241-.1384 1.0227-1.4038 3.396-2.0192 4.4548V77Z" fill="#000"/><defs><pattern id="b" patternContentUnits="objectBoundingBox" width="1" height="1"><use xlink:href="#c" transform="matrix(.00164 0 0 .00165 -.0633333 -.06)"/></pattern></defs></svg>